<svg xmlns="http://www.w3.org/2000/svg" xmlns:xlink="http://www.w3.org/1999/xlink" version="1.1" id="Layer_1" x="0px" y="0px" width="100px" height="100px" viewBox="0 0 100 100" enable-background="new 0 0 100 100" xml:space="preserve">
<g>
	<path d="M99.017,30.897c-0.597-0.283-1.307-0.188-1.821,0.229L71.718,52.359L55.15,44.085c-0.836-0.428-1.86-0.084-2.29,0.764   c-0.419,0.837-0.072,1.861,0.764,2.291l17.562,8.774c0.605,0.304,1.339,0.222,1.86-0.208L96.59,36.085v39.451L71.718,96.266   l-42.903-21.45c-0.606-0.306-1.338-0.221-1.861,0.219L3.422,94.646V55.193l24.86-20.73l16.566,8.284   c0.848,0.418,1.872,0.084,2.292-0.763c0.418-0.848,0.083-1.873-0.764-2.292l-17.561-8.785c-0.606-0.304-1.338-0.22-1.861,0.219   L0.619,53.08C0.231,53.404,0,53.888,0,54.388v43.907c0,0.658,0.388,1.266,0.984,1.547C1.215,99.946,1.466,100,1.705,100   c0.397,0,0.785-0.136,1.1-0.397L28.282,78.37l42.903,21.452c0.605,0.303,1.339,0.209,1.86-0.22l26.336-21.954   c0.397-0.324,0.618-0.805,0.618-1.306V32.434C100,31.775,99.622,31.168,99.017,30.897z"/>
	<path d="M26.347,41.22v26.335c0,0.953,0.764,1.717,1.705,1.717s1.705-0.764,1.705-1.717V41.22c0-0.941-0.764-1.705-1.705-1.705   S26.347,40.279,26.347,41.22z"/>
	<path d="M73.664,89.509V63.173c0-0.938-0.774-1.714-1.717-1.714c-0.941,0-1.703,0.775-1.703,1.714v26.336   c0,0.943,0.762,1.705,1.703,1.705C72.89,91.214,73.664,90.452,73.664,89.509z"/>
	<path d="M48.29,29.649v33.523c0,0.941,0.774,1.707,1.715,1.707s1.705-0.766,1.705-1.707V29.651   c7.399-0.85,13.168-7.146,13.168-14.778C64.878,6.674,58.205,0,50.005,0c-8.209,0-14.883,6.674-14.883,14.873   C35.122,22.501,40.886,28.795,48.29,29.649z M50.005,3.409c6.318,0,11.463,5.146,11.463,11.464c0,6.328-5.145,11.463-11.463,11.463   c-6.328,0-11.462-5.135-11.462-11.463C38.542,8.556,43.677,3.409,50.005,3.409z"/>
	<path d="M47.316,63.153c-0.01-0.932-0.761-1.694-1.704-1.694c-0.941,0-1.704,0.775-1.704,1.714c0,2.448,1.62,6.099,6.097,6.099   c4.465,0,6.097-3.65,6.097-6.099c0-0.938-0.762-1.694-1.693-1.704c-0.01,0-0.01,0-0.021,0c-0.931,0-1.684,0.753-1.706,1.685   c-0.01,0.814-0.302,2.697-2.677,2.697C47.63,65.851,47.338,63.968,47.316,63.153z"/>
</g>
</svg>