<svg xmlns="http://www.w3.org/2000/svg" xmlns:xlink="http://www.w3.org/1999/xlink" version="1.1" x="0px" y="0px" width="100px" height="100px" viewBox="0 0 100 100" enable-background="new 0 0 100 100" xml:space="preserve">
<g id="Layer_2">
</g>
<g id="Layer_5">
	<g>
		<path d="M70.492,12.295H29.508c-0.452,0-0.819,0.367-0.819,0.82v73.771c0,0.453,0.367,0.82,0.819,0.82h40.984    c0.453,0,0.819-0.367,0.819-0.82V13.115C71.312,12.662,70.945,12.295,70.492,12.295z M69.672,86.065H30.328V13.935h39.344V86.065z    "/>
		<path d="M45.902,9.836h8.196c0.453,0,0.819-0.367,0.819-0.819s-0.366-0.82-0.819-0.82h-8.196c-0.453,0-0.82,0.367-0.82,0.82    S45.449,9.836,45.902,9.836z"/>
		<path d="M85.656,43.853c0-2.66-1.5-4.974-3.696-6.147c2.196-1.174,3.696-3.488,3.696-6.147c0-3.842-3.126-6.967-6.968-6.967H75.41    V4.918C75.41,2.206,73.204,0,70.492,0H29.508c-2.712,0-4.918,2.206-4.918,4.918v11.913c-1.278-1.518-3.191-2.487-5.327-2.487    c-3.842,0-6.968,3.125-6.968,6.967v8.003l-8.11,16.221c-0.004,0.008-0.003,0.017-0.007,0.025    c-0.022,0.048-0.029,0.102-0.042,0.155c-0.013,0.054-0.031,0.107-0.032,0.162c0,0.009-0.005,0.016-0.005,0.025v28.349L0.24,78.109    c-0.32,0.32-0.32,0.839,0,1.159c0.16,0.16,0.37,0.24,0.579,0.24c0.21,0,0.42-0.08,0.58-0.24l4.098-4.098    c0.076-0.076,0.136-0.167,0.178-0.267c0.041-0.1,0.063-0.206,0.063-0.313V46.095l8.109-16.22c0.005-0.008,0.004-0.017,0.007-0.025    c0.022-0.048,0.029-0.103,0.042-0.155c0.014-0.055,0.031-0.107,0.033-0.162c0-0.009,0.005-0.016,0.005-0.025v-8.197    c0-2.938,2.39-5.328,5.328-5.328c2.938,0,5.327,2.391,5.327,5.328v11.658c-0.097,0.077-0.182,0.169-0.238,0.289L16.66,49.652    c-0.193,0.41-0.017,0.898,0.394,1.09c0.112,0.053,0.23,0.078,0.348,0.078c0.308,0,0.604-0.174,0.742-0.472l6.446-13.739v58.473    c0,2.712,2.206,4.918,4.918,4.918h40.984c2.712,0,4.918-2.206,4.918-4.918V75.41h3.278c3.842,0,6.968-3.125,6.968-6.967    c0-2.659-1.5-4.974-3.696-6.147c2.196-1.173,3.696-3.488,3.696-6.147s-1.5-4.974-3.696-6.147    C84.156,48.827,85.656,46.512,85.656,43.853z M78.688,26.229c2.938,0,5.328,2.39,5.328,5.328c0,2.938-2.39,5.328-5.328,5.328    H75.41V26.229H78.688z M73.771,95.082c0,1.808-1.47,3.279-3.278,3.279H29.508c-1.808,0-3.278-1.471-3.278-3.279V4.918    c0-1.808,1.471-3.279,3.278-3.279h40.984c1.809,0,3.278,1.471,3.278,3.279V95.082z M84.017,68.442c0,2.938-2.39,5.328-5.328,5.328    H75.41V63.115h3.278C81.627,63.115,84.017,65.505,84.017,68.442z M84.017,56.147c0,2.938-2.39,5.328-5.328,5.328H75.41V50.82    h3.278C81.627,50.82,84.017,53.21,84.017,56.147z M78.688,49.18H75.41V38.524h3.278c2.938,0,5.328,2.39,5.328,5.328    C84.017,46.79,81.627,49.18,78.688,49.18z"/>
	</g>
</g>
</svg>