<svg xmlns="http://www.w3.org/2000/svg" xmlns:xlink="http://www.w3.org/1999/xlink" version="1.1" x="0px" y="0px" viewBox="0 0 100 100" enable-background="new 0 0 100 100" xml:space="preserve" height="100px" width="100px">
<g id="Captions">
</g>
<g id="Your_Icon">
	<g>
		<g>
			<path fill="#000000" d="M52.169,17.102c4.288,0,7.772-3.483,7.772-7.767c0-4.293-3.485-7.775-7.772-7.775     s-7.772,3.483-7.772,7.775C44.397,13.62,47.882,17.102,52.169,17.102z"/>
		</g>
	</g>
	<path fill="#000000" d="M39.14,69.551c-0.851-1.244-2.406-3.624-3.923-6.486l-0.132-1.099l-1.127,1.949L13.96,64.474   c-2.083,0.058-3.725,1.763-3.667,3.846c0.058,2.083,1.793,3.693,3.876,3.635c0,0,17.642-0.639,20.645-0.576   C37.816,71.44,39.14,69.551,39.14,69.551z"/>
	<circle fill="#000000" cx="82.192" cy="23.182" r="1.972"/>
	<path fill="#000000" d="M46.167,60.706c1.234-2.136,2.486-4.491,3.623-6.941c1.474-3.175,2.747-6.512,3.774-9.481l-3.234,2.147   c0.196,1.328-0.065,2.673-0.758,3.844c-1.053,1.78-2.994,2.886-5.063,2.886c-1.05,0-1.933-0.284-2.84-0.82L36,48.896v0.002   c-1-0.514-2.148-1.762-2.148-1.762l-0.236,1.924c-0.588,5.078,3.017,11.536,3.184,11.867c2.519,5.14,5.553,9.449,5.553,9.449   l-6.13,23.341c-0.529,2.015,0.642,4.07,2.658,4.598c2.015,0.529,4.046-0.685,4.574-2.7l6.12-23.341c0,0,1.073-3.472,0.218-5.397   L46.167,60.706z"/>
	<path fill="#000000" d="M88.102,18.821c-1.468-1.965-3.673-3.139-5.898-3.139c-1.277,0-2.473,0.39-3.46,1.127   c-1.017,0.76-1.662,2.007-2.345,3.328c-0.337,0.651-0.963,1.862-1.292,2.122c-1.073,0.802-1.771,1.975-1.963,3.303   c-0.133,0.92-0.012,1.838,0.342,2.672l-8.222,5.458c-0.011-0.009-0.023-0.016-0.035-0.025c-0.042-0.031-0.083-0.061-0.126-0.09   c-0.018-0.012-0.036-0.023-0.055-0.035c-0.1-0.064-0.202-0.124-0.309-0.178c-0.004-0.002-0.008-0.005-0.013-0.007   c-0.037-0.019-0.076-0.036-0.114-0.053c-0.035-0.016-0.071-0.033-0.107-0.048c-0.035-0.015-0.071-0.028-0.106-0.042   c-0.042-0.016-0.084-0.031-0.126-0.046c-0.033-0.011-0.066-0.022-0.1-0.032c-0.05-0.015-0.101-0.029-0.152-0.042   c-0.028-0.007-0.056-0.015-0.084-0.021c-0.08-0.019-0.161-0.035-0.244-0.048c-1.924-0.304-3.731,1.009-4.036,2.933l-2.835-2.524   l0.452-1.695c2.48-6.199,0.916-11.273-0.133-13.597c-1.47,0.832-3.165,1.309-4.971,1.309c-2.59,0-4.956-0.978-6.748-2.584   l-5.894,1.829c0,0-10.263,14.326-12.615,17.64c-2.352,3.314,3.094,6.456,3.094,6.456l12.709,7.522   c1.677,0.992,3.841,0.437,4.833-1.239s0.437-3.841-1.239-4.833l-11.271-6.623l1.587-1.549c0.943,0.381,1.541,0.659,1.541,0.659   l9.341,5.489c0.822,0.487,1.498,1.151,1.99,1.939l9.868-6.551l-0.568,3.202l-3.478,2.309l3.559,2.413c0,0,4.764,1.176,6.717-0.89   C66.421,41.149,67,36.446,67,36.345c0-0.003,0-0.007,0-0.01c0-0.232-0.213-0.46-0.268-0.681l8.238-5.525   c0.897,0.75,2.001,1.177,3.188,1.177c1.09,0,2.108-0.346,2.983-0.999c0.341-0.241,1.67-0.498,2.39-0.636   c1.46-0.28,2.835-0.545,3.852-1.305c1.402-1.047,2.246-2.724,2.32-4.599C89.771,22.048,89.201,20.292,88.102,18.821z    M85.969,26.482c-1.218,0.91-4.818,0.867-6.257,1.941c-0.48,0.358-1.041,0.531-1.597,0.531c-0.814,0-1.618-0.371-2.142-1.073   c-0.883-1.182-0.641-2.856,0.541-3.739c1.438-1.075,2.418-4.539,3.636-5.449c0.598-0.447,1.31-0.659,2.053-0.659   c1.423,0,2.958,0.781,4.014,2.195C87.824,22.38,87.713,25.179,85.969,26.482z"/>
</g>
</svg>